name Walk7.mot
datacolumns 19
datarows 20
range 2.04300000 2.06200000
endheader

                time	   L_ground_force_vx	   L_ground_force_vy	   L_ground_force_vz	   L_ground_force_px	   L_ground_force_py	   L_ground_force_pz	   R_ground_force_vx	   R_ground_force_vy	   R_ground_force_vz	   R_ground_force_px	   R_ground_force_py	   R_ground_force_pz	   L_ground_torque_x	   L_ground_torque_y	   L_ground_torque_z	   R_ground_torque_x	   R_ground_torque_y	   R_ground_torque_z	
          2.04300000	        -13.25803002	        539.09764534	        -41.98890878	          0.19902106	          0.00000000	          0.09952380	          0.00000000	          0.00000000	          0.00000000	          0.00000000	          0.00000000	          0.00000000	          0.00000000	          1.40189516	          0.00000000	          0.00000000	          0.00000000	          0.00000000	
          2.04400000	        -12.79439229	        537.26811082	        -41.87087052	          0.19931739	          0.00000000	          0.09962839	          0.00000000	          0.00000000	          0.00000000	          0.00000000	          0.00000000	          0.00000000	          0.00000000	          1.40734151	          0.00000000	          0.00000000	          0.00000000	          0.00000000	
          2.04500000	        -12.35714105	        535.51018258	        -41.75667239	          0.19972001	          0.00000000	          0.09971646	          0.00000000	          0.00000000	          0.00000000	          0.00000000	          0.00000000	          0.00000000	          0.00000000	          1.40389589	          0.00000000	          0.00000000	          0.00000000	          0.00000000	
          2.04600000	        -11.93976289	        533.77108926	        -41.65667428	          0.20021664	          0.00000000	          0.09979380	          0.00000000	          0.00000000	          0.00000000	          0.00000000	          0.00000000	          0.00000000	          0.00000000	          1.38946196	          0.00000000	          0.00000000	          0.00000000	          0.00000000	
          2.04700000	        -11.51730625	        531.99392662	        -41.57666125	          0.20075155	          0.00000000	          0.09986130	          0.00000000	          0.00000000	          0.00000000	          0.00000000	          0.00000000	          0.00000000	          0.00000000	          1.37159081	          0.00000000	          0.00000000	          0.00000000	          0.00000000	
          2.04800000	        -11.07511621	        530.18014662	        -41.50571846	          0.20126380	          0.00000000	          0.09992813	          0.00000000	          0.00000000	          0.00000000	          0.00000000	          0.00000000	          0.00000000	          0.00000000	          1.35624828	          0.00000000	          0.00000000	          0.00000000	          0.00000000	
          2.04900000	        -10.62658781	        528.39871535	        -41.42764868	          0.20171186	          0.00000000	          0.10001949	          0.00000000	          0.00000000	          0.00000000	          0.00000000	          0.00000000	          0.00000000	          0.00000000	          1.34352806	          0.00000000	          0.00000000	          0.00000000	          0.00000000	
          2.05000000	        -10.19719043	        526.72954475	        -41.33856863	          0.20210814	          0.00000000	          0.10015409	          0.00000000	          0.00000000	          0.00000000	          0.00000000	          0.00000000	          0.00000000	          0.00000000	          1.33269227	          0.00000000	          0.00000000	          0.00000000	          0.00000000	
          2.05100000	         -9.80488888	        525.21158002	        -41.24867976	          0.20252967	          0.00000000	          0.10033890	          0.00000000	          0.00000000	          0.00000000	          0.00000000	          0.00000000	          0.00000000	          0.00000000	          1.32359287	          0.00000000	          0.00000000	          0.00000000	          0.00000000	
          2.05200000	         -9.45704830	        523.83395899	        -41.17376962	          0.20304267	          0.00000000	          0.10057596	          0.00000000	          0.00000000	          0.00000000	          0.00000000	          0.00000000	          0.00000000	          0.00000000	          1.31477653	          0.00000000	          0.00000000	          0.00000000	          0.00000000	
          2.05300000	         -9.14995821	        522.54149997	        -41.12499220	          0.20363261	          0.00000000	          0.10084658	          0.00000000	          0.00000000	          0.00000000	          0.00000000	          0.00000000	          0.00000000	          0.00000000	          1.30325165	          0.00000000	          0.00000000	          0.00000000	          0.00000000	
          2.05400000	         -8.86469123	        521.25682122	        -41.10235678	          0.20423984	          0.00000000	          0.10110712	          0.00000000	          0.00000000	          0.00000000	          0.00000000	          0.00000000	          0.00000000	          0.00000000	          1.28678078	          0.00000000	          0.00000000	          0.00000000	          0.00000000	
          2.05500000	         -8.57585582	        519.91989880	        -41.09830227	          0.20482233	          0.00000000	          0.10131523	          0.00000000	          0.00000000	          0.00000000	          0.00000000	          0.00000000	          0.00000000	          0.00000000	          1.26655501	          0.00000000	          0.00000000	          0.00000000	          0.00000000	
          2.05600000	         -8.26895342	        518.50032001	        -41.10327021	          0.20536585	          0.00000000	          0.10145179	          0.00000000	          0.00000000	          0.00000000	          0.00000000	          0.00000000	          0.00000000	          0.00000000	          1.24575396	          0.00000000	          0.00000000	          0.00000000	          0.00000000	
          2.05700000	         -7.94323592	        516.99958261	        -41.10817692	          0.20588701	          0.00000000	          0.10152627	          0.00000000	          0.00000000	          0.00000000	          0.00000000	          0.00000000	          0.00000000	          0.00000000	          1.22579306	          0.00000000	          0.00000000	          0.00000000	          0.00000000	
          2.05800000	         -7.60556776	        515.47125767	        -41.11119416	          0.20643388	          0.00000000	          0.10156922	          0.00000000	          0.00000000	          0.00000000	          0.00000000	          0.00000000	          0.00000000	          0.00000000	          1.20620920	          0.00000000	          0.00000000	          0.00000000	          0.00000000	
          2.05900000	         -7.26922029	        514.00294287	        -41.12024441	          0.20704086	          0.00000000	          0.10161610	          0.00000000	          0.00000000	          0.00000000	          0.00000000	          0.00000000	          0.00000000	          0.00000000	          1.18769375	          0.00000000	          0.00000000	          0.00000000	          0.00000000	
          2.06000000	         -6.95009546	        512.64604791	        -41.14125790	          0.20768469	          0.00000000	          0.10169287	          0.00000000	          0.00000000	          0.00000000	          0.00000000	          0.00000000	          0.00000000	          0.00000000	          1.17337421	          0.00000000	          0.00000000	          0.00000000	          0.00000000	
          2.06100000	         -6.65699997	        511.38263041	        -41.16828367	          0.20830268	          0.00000000	          0.10180741	          0.00000000	          0.00000000	          0.00000000	          0.00000000	          0.00000000	          0.00000000	          0.00000000	          1.16639498	          0.00000000	          0.00000000	          0.00000000	          0.00000000	
          2.06200000	         -6.38682044	        510.17630255	        -41.19173452	          0.20884273	          0.00000000	          0.10195839	          0.00000000	          0.00000000	          0.00000000	          0.00000000	          0.00000000	          0.00000000	          0.00000000	          1.16772164	          0.00000000	          0.00000000	          0.00000000	          0.00000000	
